<svg width="184" height="184" viewBox="0 0 184 184" fill="none" xmlns="http://www.w3.org/2000/svg">
<path d="M41.8491 129.911L84.5453 129.739C85.801 129.734 87.1553 129.354 87.7737 128.261C88.3532 127.237 88.0264 126.315 86.4816 124.931C61.3063 106.262 58.2835 78.5025 86.2433 55.4946C86.6655 54.9245 86.9156 54.4413 87.0112 53.9754C87.359 52.2806 85.1768 51.384 83.4469 51.391L69.358 51.4477C85.7966 35.736 101.341 33.5003 134.743 35.411L158.653 0.510288C88.7479 -1.60541 53.8259 2.8403 23.1783 52.4909L41.4128 52.4175C26.9798 80.226 28.1175 97.368 41.8491 129.911Z" fill="#2E2E2E" fill-opacity="0.5"/>
<path d="M166.057 51.75L124.483 51.75C123.225 51.75 121.856 52.121 121.254 53.2255C120.719 54.2072 121.047 55.1024 122.527 56.4416C147.008 74.7856 149.862 101.926 122.527 124.301C122.133 124.83 121.892 125.282 121.788 125.717C121.385 127.401 123.581 128.323 125.313 128.323H138.975C122.896 143.613 107.735 145.736 75.1762 143.738L51.75 177.751C119.894 180.094 153.955 175.887 184 127.485H166.223C180.387 100.365 179.335 83.6079 166.057 51.75Z" fill="#2E2E2E" fill-opacity="0.5"/>
<path d="M22.0274 132.25H69.3895C70.5804 132.25 71.8318 131.904 72.5248 130.935C73.3255 129.816 73.0301 128.848 71.2347 127.345C43.5602 108.167 40.3338 79.7932 71.2347 56.401C71.7673 55.7395 72.0532 55.1923 72.1217 54.6543C72.3323 52.9988 70.233 52.1969 68.5642 52.1969H52.6411C70.8172 36.2118 87.9566 33.9916 124.762 36.0812L151.244 0.521539C74.211 -1.92764 35.7075 2.47087 1.74353 53.0728H21.8396C5.82822 81.4253 7.01724 98.944 22.0274 132.25Z" fill="#1A1A1A"/>
<path d="M162.515 51.75H117.101C115.876 51.75 114.577 52.1123 113.91 53.1389C113.203 54.2271 113.512 55.1853 115.2 56.6548C141.81 75.8327 144.913 104.207 115.2 127.599C114.711 128.231 114.438 128.758 114.357 129.273C114.094 130.953 116.228 131.803 117.929 131.803H133.079C115.602 147.788 99.1214 150.008 63.7318 147.919L38.2686 183.478C112.338 185.928 149.361 181.529 182.019 130.927H162.695C178.091 102.575 176.948 85.056 162.515 51.75Z" fill="#1A1A1A"/>
</svg>
