<svg width="360" height="337" viewBox="0 0 360 337" fill="none" xmlns="http://www.w3.org/2000/svg">
<g opacity="0.4">
<path d="M40.7289 239.894L128.26 239.568C129.447 239.564 130.619 239.16 131.453 238.315C133.987 235.748 133.931 233.887 130.066 230.69C79.6748 196.189 73.6242 144.89 129.589 102.371C131.237 100.317 131.575 98.873 130.864 97.0853C130.249 95.5377 128.562 94.7709 126.897 94.7771L95.7912 94.8927C128.695 65.8574 159.809 61.7258 226.668 65.2569L274.525 0.760322C134.603 -3.14949 64.7019 5.06618 3.35685 96.8205L39.8554 96.6848C10.9661 148.075 13.2434 179.753 40.7289 239.894Z" fill="#595959"/>
<path d="M296.095 97.817L208.398 97.817C207.216 97.817 206.048 98.2128 205.212 99.0474C202.659 101.594 202.706 103.447 206.568 106.644C256.919 141.157 262.789 192.219 206.568 234.316C204.909 236.355 204.565 237.79 205.271 239.572C205.883 241.115 207.562 241.882 209.222 241.882H240.397C207.327 270.649 176.144 274.645 109.181 270.884L61 334.878C201.153 339.286 271.206 331.37 333 240.306H296.437C325.568 189.282 323.405 157.755 296.095 97.817Z" fill="#595959"/>
</g>
<path d="M79.4343 243.023H163.835C165.052 243.023 166.256 242.603 167.094 241.72C169.49 239.194 169.414 237.337 165.723 234.151C117.194 199.464 111.536 148.142 165.723 105.832C167.301 103.81 167.645 102.379 167 100.62C166.416 99.03 164.701 98.2277 163.007 98.2277H133.118C164.991 69.3148 195.047 65.299 259.588 69.0786L306.026 4.76035C170.943 0.330412 103.423 8.28618 43.8647 99.8119H79.105C51.0276 151.094 53.1126 182.781 79.4343 243.023Z" fill="#DEDEDE"/>
<path d="M311.579 96.9814L227.179 96.9814C225.962 96.9814 224.758 97.4008 223.92 98.2839C221.524 100.81 221.6 102.667 225.29 105.853C273.82 140.541 279.478 191.862 225.29 234.172C223.712 236.194 223.369 237.626 224.014 239.384C224.597 240.974 226.313 241.776 228.007 241.776H257.896C226.022 270.689 195.967 274.705 131.426 270.926L84.988 335.244C220.071 339.674 287.59 331.718 347.149 240.192H311.909C339.986 188.91 337.901 157.223 311.579 96.9814Z" fill="#DEDEDE"/>
</svg>
